<svg viewBoxSize="575" data-root-id="4537240139044" xmlns="http://www.w3.org/2000/svg" xmlns:xlink="http://www.w3.org/1999/xlink" version="1.1" id="Layer_1" x="248.002" y="216.8295062866211" viewBox="22.259998321533203 22.849998474121094 455.4800109863281 454.29998779296875" xml:space="preserve" height="78.7912284013816" width="78.99589538574219" preserveAspectRatio="xMinYMin" zoom="1" editorType="buyer" data-layer-role="icon" style="position: absolute; height: 78.7912px; width: 78.9959px; top: 216.83px; left: 248.002px;"><path class="st0" d="M34.67,351.31h101.61l0,0L97.29,390.3H65.98c-2.36,0-4.73,1.77-4.73,4.73v38.4c0,2.95,2.36,4.73,4.73,4.73   h38.99c2.36,0,4.73-1.77,4.73-4.73v-30.72l38.99-38.99v101.02c0,7.09-5.91,12.41-12.41,12.41H34.67c-7.09,0-12.41-5.32-12.41-12.41   V363.72C22.27,356.63,27.58,351.31,34.67,351.31z" name="Layer %{number}" zoom="1" data-layer-id="9642646939079" style="fill: rgb(0, 166, 166);"></path><path class="st1" d="M147.51,340.09V239.07l38.99,38.99v30.72c0,2.95,1.77,4.73,4.73,4.73h38.4c2.95,0,5.32-1.77,5.32-4.73v-30.72   l38.4-38.99v101.02c0,7.09-5.32,12.41-12.41,12.41H159.91C152.82,352.49,147.51,347.18,147.51,340.09z M221.94,265.65H198.9   l-38.99-38.99h101.02L221.94,265.65z" name="Layer %{number}" zoom="1" data-layer-id="0519804139093" style="fill: rgb(240, 201, 7);"></path><path class="st1" d="M465.33,149.28H363.72l0,0l38.4-38.99h31.9c2.36,0,4.73-2.36,4.73-4.73V66.57c0-2.95-2.36-4.73-4.73-4.73   h-38.99c-2.36,0-4.73,1.77-4.73,4.73v30.72l-38.99,38.99V35.26c0-7.09,5.91-12.41,12.41-12.41h101.61c6.5,0,12.41,5.32,12.41,12.41   v101.61C477.73,143.37,471.83,149.28,465.33,149.28z" name="Layer %{number}" zoom="1" data-layer-id="3733967539108" style="fill: rgb(240, 201, 7);"></path><path class="st0" d="M151.05,116.2V217.8l-38.99-38.99v-31.31c0-2.36-2.36-4.73-4.73-4.73H68.35c-2.36,0-4.73,2.36-4.73,4.73v38.99   c0,2.36,2.36,4.73,4.73,4.73h31.31l38.99,38.99H37.04c-6.5,0-12.41-5.91-12.41-12.41V116.2c0-6.5,5.91-12.41,12.41-12.41h101.61   C145.14,103.79,151.05,109.7,151.05,116.2z" name="Layer %{number}" zoom="1" data-layer-id="4933345639123" style="fill: rgb(0, 166, 166);"></path><polygon class="st1" points="368.44,94.34 380.85,106.74 247.34,240.25 234.94,227.85  " name="Layer %{number}" zoom="1" data-layer-id="6998633539140" style="fill: rgb(240, 201, 7);"></polygon><path class="st0" d="M279.83,464.74V363.72l38.99,38.99v30.72c0,2.95,1.77,4.73,4.73,4.73h38.99c2.36,0,4.73-1.77,4.73-4.73v-38.4   c0-2.95-2.36-4.73-4.73-4.73h-31.31l-38.99-38.99h101.61c6.5,0,12.41,5.32,12.41,12.41v101.02c0,7.09-5.91,12.41-12.41,12.41   H292.24C285.15,477.14,279.83,471.83,279.83,464.74z" name="Layer %{number}" zoom="1" data-layer-id="1285210639155" style="fill: rgb(0, 166, 166);"></path></svg>