<svg viewBox="0 0 575 575" class="roots-wrapper"><g transform="rotate(0 0 0)"><svg viewBoxSize="575" data-root-id="4537240139044" xmlns="http://www.w3.org/2000/svg" xmlns:xlink="http://www.w3.org/1999/xlink" version="1.1" id="Layer_1" x="248.002" y="216.8295062866211" viewBox="22.259998321533203 22.849998474121094 455.4800109863281 454.29998779296875" xml:space="preserve" height="78.7912284013816" width="78.99589538574219" preserveAspectRatio="xMinYMin" zoom="1" editorType="buyer" data-layer-role="icon" style="position: absolute; height: 78.7912px; width: 78.9959px; top: 216.83px; left: 248.002px;"><path class="st0" d="M34.67,351.31h101.61l0,0L97.29,390.3H65.98c-2.36,0-4.73,1.77-4.73,4.73v38.4c0,2.95,2.36,4.73,4.73,4.73   h38.99c2.36,0,4.73-1.77,4.73-4.73v-30.72l38.99-38.99v101.02c0,7.09-5.91,12.41-12.41,12.41H34.67c-7.09,0-12.41-5.32-12.41-12.41   V363.72C22.27,356.63,27.58,351.31,34.67,351.31z" name="Layer %{number}" zoom="1" data-layer-id="9642646939079" style="fill: rgb(0, 166, 166);"></path><path class="st1" d="M147.51,340.09V239.07l38.99,38.99v30.72c0,2.95,1.77,4.73,4.73,4.73h38.4c2.95,0,5.32-1.77,5.32-4.73v-30.72   l38.4-38.99v101.02c0,7.09-5.32,12.41-12.41,12.41H159.91C152.82,352.49,147.51,347.18,147.51,340.09z M221.94,265.65H198.9   l-38.99-38.99h101.02L221.94,265.65z" name="Layer %{number}" zoom="1" data-layer-id="0519804139093" style="fill: rgb(240, 201, 7);"></path><path class="st1" d="M465.33,149.28H363.72l0,0l38.4-38.99h31.9c2.36,0,4.73-2.36,4.73-4.73V66.57c0-2.95-2.36-4.73-4.73-4.73   h-38.99c-2.36,0-4.73,1.77-4.73,4.73v30.72l-38.99,38.99V35.26c0-7.09,5.91-12.41,12.41-12.41h101.61c6.5,0,12.41,5.32,12.41,12.41   v101.61C477.73,143.37,471.83,149.28,465.33,149.28z" name="Layer %{number}" zoom="1" data-layer-id="3733967539108" style="fill: rgb(240, 201, 7);"></path><path class="st0" d="M151.05,116.2V217.8l-38.99-38.99v-31.31c0-2.36-2.36-4.73-4.73-4.73H68.35c-2.36,0-4.73,2.36-4.73,4.73v38.99   c0,2.36,2.36,4.73,4.73,4.73h31.31l38.99,38.99H37.04c-6.5,0-12.41-5.91-12.41-12.41V116.2c0-6.5,5.91-12.41,12.41-12.41h101.61   C145.14,103.79,151.05,109.7,151.05,116.2z" name="Layer %{number}" zoom="1" data-layer-id="4933345639123" style="fill: rgb(0, 166, 166);"></path><polygon class="st1" points="368.44,94.34 380.85,106.74 247.34,240.25 234.94,227.85  " name="Layer %{number}" zoom="1" data-layer-id="6998633539140" style="fill: rgb(240, 201, 7);"></polygon><path class="st0" d="M279.83,464.74V363.72l38.99,38.99v30.72c0,2.95,1.77,4.73,4.73,4.73h38.99c2.36,0,4.73-1.77,4.73-4.73v-38.4   c0-2.95-2.36-4.73-4.73-4.73h-31.31l-38.99-38.99h101.61c6.5,0,12.41,5.32,12.41,12.41v101.02c0,7.09-5.91,12.41-12.41,12.41   H292.24C285.15,477.14,279.83,471.83,279.83,464.74z" name="Layer %{number}" zoom="1" data-layer-id="1285210639155" style="fill: rgb(0, 166, 166);"></path></svg></g><g transform="rotate(0 0 0)"><svg viewBoxSize="575" data-root-id="8971126339174" xmlns="http://www.w3.org/2000/svg" y="346.6205062866211" viewBox="1.0099999904632568 3.2300000190734863 306 11.549999237060547" x="134.50000274658203" height="11.549999237060547" width="306" fontUrl="https://fonts.gstatic.com/s/mulish/v13/1Ptyg83HX_SGhgqO0yLcmjzUAuWexZNRwaClGrw-PTY.ttf" zoom="1" editorType="buyer" data-layer-role="slogan" style="position: absolute; top: 346.621px; width: 306px; height: 11.55px; left: 134.5px;"><g data-horizontal-grow="center" zoom="1" root="[object Object]" style="fill: rgb(240, 201, 7); fill-opacity: 1;"><path d="M4.39 12.17L4.39 12.17Q2.68 12.17 1.84 11.29Q1.01 10.42 1.01 8.71L1.01 8.71L1.01 3.60L1.99 3.60L1.99 8.66Q1.99 9.97 2.57 10.63Q3.14 11.29 4.39 11.29L4.39 11.29Q5.57 11.29 6.18 10.63Q6.79 9.97 6.79 8.66L6.79 8.66L6.79 3.60L7.78 3.60L7.78 8.71Q7.78 10.42 6.92 11.29Q6.06 12.17 4.39 12.17ZM12.60 12.06L11.63 12.06L11.63 7.43Q11.63 7.09 11.60 6.74Q11.57 6.38 11.53 6.04L11.53 6.04L12.47 6.04L12.59 7.36L12.44 7.36Q12.71 6.66 13.29 6.29Q13.87 5.93 14.64 5.93L14.64 5.93Q15.71 5.93 16.25 6.50Q16.80 7.07 16.80 8.29L16.80 8.29L16.80 12.06L15.83 12.06L15.83 8.35Q15.83 7.50 15.49 7.11Q15.14 6.72 14.42 6.72L14.42 6.72Q13.58 6.72 13.09 7.24Q12.60 7.75 12.60 8.62L12.60 8.62L12.60 12.06ZM21.55 12.06L20.58 12.06L20.58 3.23L21.55 3.23L21.55 12.06ZM28.03 12.17L28.03 12.17Q26.62 12.17 25.80 11.35Q24.98 10.52 24.98 9.06L24.98 9.06Q24.98 8.11 25.34 7.41Q25.70 6.71 26.35 6.32Q27 5.93 27.84 5.93L27.84 5.93Q28.67 5.93 29.23 6.28Q29.80 6.62 30.10 7.27Q30.40 7.91 30.40 8.78L30.40 8.78L30.40 9.14L25.73 9.14L25.73 8.53L29.76 8.53L29.56 8.69Q29.56 7.73 29.12 7.19Q28.69 6.65 27.84 6.65L27.84 6.65Q26.94 6.65 26.44 7.28Q25.93 7.91 25.93 8.98L25.93 8.98L25.93 9.08Q25.93 10.21 26.49 10.79Q27.05 11.38 28.06 11.38L28.06 11.38Q28.60 11.38 29.07 11.21Q29.54 11.05 29.98 10.68L29.98 10.68L30.31 11.36Q29.92 11.75 29.31 11.96Q28.70 12.17 28.03 12.17ZM36.10 12.17L36.10 12.17Q35.29 12.17 34.69 11.79Q34.09 11.41 33.76 10.72Q33.43 10.02 33.43 9.05L33.43 9.05Q33.43 8.06 33.76 7.37Q34.09 6.67 34.69 6.30Q35.29 5.93 36.10 5.93L36.10 5.93Q36.91 5.93 37.51 6.34Q38.10 6.76 38.29 7.46L38.29 7.46L38.15 7.46L38.28 6.04L39.22 6.04Q39.18 6.38 39.15 6.74Q39.12 7.09 39.12 7.43L39.12 7.43L39.12 12.06L38.15 12.06L38.15 10.64L38.28 10.64Q38.09 11.35 37.49 11.76Q36.89 12.17 36.10 12.17ZM36.29 11.38L36.29 11.38Q37.15 11.38 37.66 10.78Q38.16 10.19 38.16 9.05L38.16 9.05Q38.16 7.90 37.66 7.30Q37.15 6.71 36.29 6.71L36.29 6.71Q35.44 6.71 34.93 7.30Q34.42 7.90 34.42 9.05L34.42 9.05Q34.42 10.19 34.93 10.78Q35.44 11.38 36.29 11.38ZM44.93 12.17L44.93 12.17Q44.21 12.17 43.58 11.97Q42.96 11.77 42.55 11.41L42.55 11.41L42.89 10.73Q43.33 11.08 43.85 11.24Q44.38 11.41 44.94 11.41L44.94 11.41Q45.66 11.41 46.03 11.15Q46.39 10.90 46.39 10.44L46.39 10.44Q46.39 10.09 46.16 9.88Q45.92 9.67 45.40 9.55L45.40 9.55L44.28 9.32Q43.51 9.16 43.13 8.75Q42.74 8.35 42.74 7.73L42.74 7.73Q42.74 7.20 43.02 6.80Q43.30 6.40 43.82 6.16Q44.35 5.93 45.06 5.93L45.06 5.93Q45.72 5.93 46.28 6.13Q46.84 6.32 47.21 6.70L47.21 6.70L46.86 7.37Q46.50 7.02 46.04 6.85Q45.58 6.67 45.08 6.67L45.08 6.67Q44.38 6.67 44.02 6.95Q43.67 7.24 43.67 7.69L43.67 7.69Q43.67 8.04 43.89 8.26Q44.11 8.48 44.58 8.59L44.58 8.59L45.70 8.82Q46.51 9 46.91 9.38Q47.32 9.76 47.32 10.39L47.32 10.39Q47.32 10.93 47.02 11.33Q46.72 11.74 46.18 11.95Q45.65 12.17 44.93 12.17ZM51.77 12.06L50.80 12.06L50.80 3.23L51.77 3.23L51.77 7.37L51.61 7.37Q51.86 6.66 52.46 6.29Q53.05 5.93 53.83 5.93L53.83 5.93Q54.91 5.93 55.44 6.51Q55.97 7.09 55.97 8.27L55.97 8.27L55.97 12.06L55.00 12.06L55.00 8.33Q55.00 7.49 54.67 7.10Q54.34 6.72 53.60 6.72L53.60 6.72Q52.76 6.72 52.27 7.24Q51.77 7.75 51.77 8.59L51.77 8.59L51.77 12.06ZM64.56 14.78L64.56 14.78L64.33 13.98Q64.90 13.85 65.27 13.67Q65.65 13.50 65.90 13.21Q66.16 12.92 66.34 12.49L66.34 12.49L66.65 11.78L66.62 12.19L64.00 6.04L65.05 6.04L67.22 11.33L66.91 11.33L69.06 6.04L70.08 6.04L67.30 12.56Q67.06 13.14 66.77 13.53Q66.48 13.92 66.15 14.17Q65.82 14.41 65.42 14.56Q65.03 14.70 64.56 14.78ZM75.48 12.17L75.48 12.17Q74.62 12.17 73.97 11.79Q73.33 11.41 72.98 10.71Q72.64 10.01 72.64 9.05L72.64 9.05Q72.64 8.08 72.98 7.38Q73.33 6.68 73.97 6.31Q74.62 5.93 75.48 5.93L75.48 5.93Q76.36 5.93 77.00 6.31Q77.64 6.68 77.99 7.38Q78.35 8.08 78.35 9.05L78.35 9.05Q78.35 10.01 77.99 10.71Q77.64 11.41 77.00 11.79Q76.36 12.17 75.48 12.17ZM75.48 11.38L75.48 11.38Q76.34 11.38 76.85 10.78Q77.35 10.19 77.35 9.05L77.35 9.05Q77.35 7.90 76.84 7.30Q76.33 6.71 75.48 6.71L75.48 6.71Q74.63 6.71 74.12 7.30Q73.62 7.90 73.62 9.05L73.62 9.05Q73.62 10.19 74.12 10.78Q74.63 11.38 75.48 11.38ZM83.90 12.17L83.90 12.17Q82.84 12.17 82.29 11.58Q81.74 10.99 81.74 9.78L81.74 9.78L81.74 6.04L82.72 6.04L82.72 9.76Q82.72 10.58 83.05 10.97Q83.39 11.36 84.10 11.36L84.10 11.36Q84.89 11.36 85.37 10.85Q85.85 10.33 85.85 9.47L85.85 9.47L85.85 6.04L86.82 6.04L86.82 12.06L85.87 12.06L85.87 10.70L86.03 10.70Q85.78 11.40 85.22 11.78Q84.66 12.17 83.90 12.17ZM91.58 12.06L90.60 12.06L90.60 7.49Q90.60 7.13 90.58 6.76Q90.56 6.38 90.53 6.04L90.53 6.04L91.46 6.04L91.58 7.50L91.42 7.51Q91.54 6.97 91.84 6.62Q92.14 6.28 92.54 6.10Q92.95 5.93 93.40 5.93L93.40 5.93Q93.58 5.93 93.71 5.94Q93.85 5.95 93.97 6L93.97 6L93.96 6.86Q93.78 6.80 93.63 6.79Q93.48 6.77 93.29 6.77L93.29 6.77Q92.76 6.77 92.37 7.02Q91.98 7.27 91.78 7.67Q91.58 8.06 91.58 8.51L91.58 8.51L91.58 12.06ZM104.42 12.17L104.42 12.17Q103.56 12.17 102.92 11.79Q102.28 11.41 101.93 10.71Q101.58 10.01 101.58 9.05L101.58 9.05Q101.58 8.08 101.93 7.38Q102.28 6.68 102.92 6.31Q103.56 5.93 104.42 5.93L104.42 5.93Q105.30 5.93 105.94 6.31Q106.58 6.68 106.94 7.38Q107.29 8.08 107.29 9.05L107.29 9.05Q107.29 10.01 106.94 10.71Q106.58 11.41 105.94 11.79Q105.30 12.17 104.42 12.17ZM104.42 11.38L104.42 11.38Q105.29 11.38 105.79 10.78Q106.30 10.19 106.30 9.05L106.30 9.05Q106.30 7.90 105.79 7.30Q105.28 6.71 104.42 6.71L104.42 6.71Q103.57 6.71 103.07 7.30Q102.56 7.90 102.56 9.05L102.56 9.05Q102.56 10.19 103.07 10.78Q103.57 11.38 104.42 11.38ZM111.70 12.06L110.72 12.06L110.72 7.43Q110.72 7.09 110.69 6.74Q110.66 6.38 110.63 6.04L110.63 6.04L111.56 6.04L111.68 7.36L111.54 7.36Q111.80 6.66 112.39 6.29Q112.97 5.93 113.74 5.93L113.74 5.93Q114.80 5.93 115.35 6.50Q115.90 7.07 115.90 8.29L115.90 8.29L115.90 12.06L114.92 12.06L114.92 8.35Q114.92 7.50 114.58 7.11Q114.24 6.72 113.52 6.72L113.52 6.72Q112.68 6.72 112.19 7.24Q111.70 7.75 111.70 8.62L111.70 8.62L111.70 12.06ZM120.65 12.06L119.68 12.06L119.68 3.23L120.65 3.23L120.65 12.06ZM125.42 12.06L124.45 12.06L124.45 6.04L125.42 6.04L125.42 12.06ZM125.53 4.67L124.33 4.67L124.33 3.58L125.53 3.58L125.53 4.67ZM130.20 12.06L129.23 12.06L129.23 7.43Q129.23 7.09 129.20 6.74Q129.17 6.38 129.13 6.04L129.13 6.04L130.07 6.04L130.19 7.36L130.04 7.36Q130.31 6.66 130.89 6.29Q131.47 5.93 132.24 5.93L132.24 5.93Q133.31 5.93 133.85 6.50Q134.40 7.07 134.40 8.29L134.40 8.29L134.40 12.06L133.43 12.06L133.43 8.35Q133.43 7.50 133.09 7.11Q132.74 6.72 132.02 6.72L132.02 6.72Q131.18 6.72 130.69 7.24Q130.20 7.75 130.20 8.62L130.20 8.62L130.20 12.06ZM140.86 12.17L140.86 12.17Q139.44 12.17 138.62 11.35Q137.81 10.52 137.81 9.06L137.81 9.06Q137.81 8.11 138.17 7.41Q138.53 6.71 139.18 6.32Q139.82 5.93 140.66 5.93L140.66 5.93Q141.49 5.93 142.06 6.28Q142.62 6.62 142.92 7.27Q143.22 7.91 143.22 8.78L143.22 8.78L143.22 9.14L138.55 9.14L138.55 8.53L142.58 8.53L142.38 8.69Q142.38 7.73 141.95 7.19Q141.52 6.65 140.66 6.65L140.66 6.65Q139.76 6.65 139.26 7.28Q138.76 7.91 138.76 8.98L138.76 8.98L138.76 9.08Q138.76 10.21 139.31 10.79Q139.87 11.38 140.88 11.38L140.88 11.38Q141.42 11.38 141.89 11.21Q142.37 11.05 142.80 10.68L142.80 10.68L143.14 11.36Q142.74 11.75 142.13 11.96Q141.53 12.17 140.86 12.17ZM152.65 14.65L151.68 14.65L151.68 7.43Q151.68 7.09 151.65 6.74Q151.62 6.38 151.58 6.04L151.58 6.04L152.52 6.04L152.65 7.46L152.51 7.46Q152.70 6.76 153.29 6.34Q153.88 5.93 154.69 5.93L154.69 5.93Q155.51 5.93 156.10 6.30Q156.70 6.67 157.03 7.37Q157.37 8.06 157.37 9.05L157.37 9.05Q157.37 10.02 157.04 10.72Q156.71 11.41 156.11 11.79Q155.51 12.17 154.69 12.17L154.69 12.17Q153.89 12.17 153.30 11.76Q152.71 11.35 152.52 10.64L152.52 10.64L152.65 10.64L152.65 14.65ZM154.50 11.38L154.50 11.38Q155.36 11.38 155.87 10.78Q156.38 10.19 156.38 9.05L156.38 9.05Q156.38 7.90 155.87 7.30Q155.36 6.71 154.50 6.71L154.50 6.71Q153.65 6.71 153.14 7.30Q152.63 7.90 152.63 9.05L152.63 9.05Q152.63 10.19 153.14 10.78Q153.65 11.38 154.50 11.38ZM163.27 12.17L163.27 12.17Q162.41 12.17 161.77 11.79Q161.12 11.41 160.78 10.71Q160.43 10.01 160.43 9.05L160.43 9.05Q160.43 8.08 160.78 7.38Q161.12 6.68 161.77 6.31Q162.41 5.93 163.27 5.93L163.27 5.93Q164.15 5.93 164.79 6.31Q165.43 6.68 165.79 7.38Q166.14 8.08 166.14 9.05L166.14 9.05Q166.14 10.01 165.79 10.71Q165.43 11.41 164.79 11.79Q164.15 12.17 163.27 12.17ZM163.27 11.38L163.27 11.38Q164.14 11.38 164.64 10.78Q165.14 10.19 165.14 9.05L165.14 9.05Q165.14 7.90 164.63 7.30Q164.12 6.71 163.27 6.71L163.27 6.71Q162.42 6.71 161.92 7.30Q161.41 7.90 161.41 9.05L161.41 9.05Q161.41 10.19 161.92 10.78Q162.42 11.38 163.27 11.38ZM171.65 12.17L171.65 12.17Q170.76 12.17 170.29 11.66Q169.82 11.15 169.82 10.12L169.82 10.12L169.82 6.79L168.65 6.79L168.65 6.04L169.82 6.04L169.82 4.39L170.80 4.12L170.80 6.04L172.52 6.04L172.52 6.79L170.80 6.79L170.80 10.01Q170.80 10.73 171.04 11.03Q171.29 11.34 171.78 11.34L171.78 11.34Q172.01 11.34 172.19 11.30Q172.37 11.26 172.51 11.20L172.51 11.20L172.51 12.01Q172.34 12.08 172.11 12.13Q171.88 12.17 171.65 12.17ZM178.25 12.17L178.25 12.17Q176.83 12.17 176.02 11.35Q175.20 10.52 175.20 9.06L175.20 9.06Q175.20 8.11 175.56 7.41Q175.92 6.71 176.57 6.32Q177.22 5.93 178.06 5.93L178.06 5.93Q178.88 5.93 179.45 6.28Q180.01 6.62 180.31 7.27Q180.61 7.91 180.61 8.78L180.61 8.78L180.61 9.14L175.94 9.14L175.94 8.53L179.98 8.53L179.77 8.69Q179.77 7.73 179.34 7.19Q178.91 6.65 178.06 6.65L178.06 6.65Q177.16 6.65 176.65 7.28Q176.15 7.91 176.15 8.98L176.15 8.98L176.15 9.08Q176.15 10.21 176.71 10.79Q177.26 11.38 178.27 11.38L178.27 11.38Q178.81 11.38 179.29 11.21Q179.76 11.05 180.19 10.68L180.19 10.68L180.53 11.36Q180.13 11.75 179.53 11.96Q178.92 12.17 178.25 12.17ZM184.99 12.06L184.02 12.06L184.02 7.43Q184.02 7.09 183.99 6.74Q183.96 6.38 183.92 6.04L183.92 6.04L184.86 6.04L184.98 7.36L184.84 7.36Q185.10 6.66 185.68 6.29Q186.26 5.93 187.03 5.93L187.03 5.93Q188.10 5.93 188.65 6.50Q189.19 7.07 189.19 8.29L189.19 8.29L189.19 12.06L188.22 12.06L188.22 8.35Q188.22 7.50 187.88 7.11Q187.54 6.72 186.82 6.72L186.82 6.72Q185.98 6.72 185.48 7.24Q184.99 7.75 184.99 8.62L184.99 8.62L184.99 12.06ZM195.11 12.17L195.11 12.17Q194.22 12.17 193.75 11.66Q193.28 11.15 193.28 10.12L193.28 10.12L193.28 6.79L192.11 6.79L192.11 6.04L193.28 6.04L193.28 4.39L194.26 4.12L194.26 6.04L195.98 6.04L195.98 6.79L194.26 6.79L194.26 10.01Q194.26 10.73 194.50 11.03Q194.75 11.34 195.24 11.34L195.24 11.34Q195.47 11.34 195.65 11.30Q195.83 11.26 195.97 11.20L195.97 11.20L195.97 12.01Q195.80 12.08 195.57 12.13Q195.34 12.17 195.11 12.17ZM200.06 12.06L199.09 12.06L199.09 6.04L200.06 6.04L200.06 12.06ZM200.17 4.67L198.97 4.67L198.97 3.58L200.17 3.58L200.17 4.67ZM206.16 12.17L206.16 12.17Q205.36 12.17 204.76 11.79Q204.16 11.41 203.83 10.72Q203.50 10.02 203.50 9.05L203.50 9.05Q203.50 8.06 203.83 7.37Q204.16 6.67 204.76 6.30Q205.36 5.93 206.16 5.93L206.16 5.93Q206.98 5.93 207.57 6.34Q208.16 6.76 208.36 7.46L208.36 7.46L208.21 7.46L208.34 6.04L209.28 6.04Q209.24 6.38 209.21 6.74Q209.18 7.09 209.18 7.43L209.18 7.43L209.18 12.06L208.21 12.06L208.21 10.64L208.34 10.64Q208.15 11.35 207.55 11.76Q206.95 12.17 206.16 12.17ZM206.35 11.38L206.35 11.38Q207.22 11.38 207.72 10.78Q208.22 10.19 208.22 9.05L208.22 9.05Q208.22 7.90 207.72 7.30Q207.22 6.71 206.35 6.71L206.35 6.71Q205.50 6.71 204.99 7.30Q204.48 7.90 204.48 9.05L204.48 9.05Q204.48 10.19 204.99 10.78Q205.50 11.38 206.35 11.38ZM213.96 12.06L212.99 12.06L212.99 3.23L213.96 3.23L213.96 12.06ZM225.37 12.06L224.42 12.06L222.19 6.04L223.22 6.04L225.08 11.34L224.77 11.34L226.69 6.04L227.53 6.04L229.42 11.34L229.12 11.34L230.99 6.04L231.97 6.04L229.73 12.06L228.79 12.06L226.85 6.67L227.33 6.67L225.37 12.06ZM236.14 12.06L235.16 12.06L235.16 6.04L236.14 6.04L236.14 12.06ZM236.24 4.67L235.04 4.67L235.04 3.58L236.24 3.58L236.24 4.67ZM242.08 12.17L242.08 12.17Q241.19 12.17 240.72 11.66Q240.25 11.15 240.25 10.12L240.25 10.12L240.25 6.79L239.08 6.79L239.08 6.04L240.25 6.04L240.25 4.39L241.22 4.12L241.22 6.04L242.95 6.04L242.95 6.79L241.22 6.79L241.22 10.01Q241.22 10.73 241.47 11.03Q241.72 11.34 242.21 11.34L242.21 11.34Q242.44 11.34 242.62 11.30Q242.80 11.26 242.94 11.20L242.94 11.20L242.94 12.01Q242.77 12.08 242.54 12.13Q242.30 12.17 242.08 12.17ZM247.03 12.06L246.06 12.06L246.06 3.23L247.03 3.23L247.03 7.37L246.88 7.37Q247.13 6.66 247.72 6.29Q248.32 5.93 249.10 5.93L249.10 5.93Q250.18 5.93 250.70 6.51Q251.23 7.09 251.23 8.27L251.23 8.27L251.23 12.06L250.26 12.06L250.26 8.33Q250.26 7.49 249.93 7.10Q249.60 6.72 248.87 6.72L248.87 6.72Q248.03 6.72 247.53 7.24Q247.03 7.75 247.03 8.59L247.03 8.59L247.03 12.06ZM261.17 12.06L260.17 12.06L260.17 3.60L261.17 3.60L261.17 7.34L266.27 7.34L266.27 3.60L267.25 3.60L267.25 12.06L266.27 12.06L266.27 8.20L261.17 8.20L261.17 12.06ZM277.82 13.76L277.14 14.35Q276.79 14.12 276.42 13.76Q276.05 13.40 275.72 12.96Q275.39 12.52 275.15 12.07L275.15 12.07L276.02 11.75Q276.34 12.37 276.83 12.88Q277.32 13.39 277.82 13.76L277.82 13.76ZM270.97 7.82L270.97 7.82Q270.97 6.48 271.43 5.51Q271.90 4.55 272.77 4.02Q273.64 3.49 274.86 3.49L274.86 3.49Q276.05 3.49 276.92 4.02Q277.80 4.55 278.27 5.51Q278.75 6.48 278.75 7.81L278.75 7.81Q278.75 9.16 278.27 10.13Q277.79 11.10 276.92 11.63Q276.05 12.17 274.86 12.17L274.86 12.17Q273.64 12.17 272.77 11.63Q271.91 11.10 271.44 10.13Q270.97 9.16 270.97 7.82ZM272.02 7.82L272.02 7.82Q272.02 9.46 272.74 10.37Q273.46 11.29 274.86 11.29L274.86 11.29Q276.20 11.29 276.95 10.37Q277.70 9.46 277.70 7.82L277.70 7.82Q277.70 6.18 276.96 5.27Q276.22 4.37 274.86 4.37L274.86 4.37Q273.46 4.37 272.74 5.27Q272.02 6.18 272.02 7.82ZM290.69 12.06L289.82 12.06L286.87 3.60L287.92 3.60L290.50 11.22L290.08 11.22L292.79 3.60L293.58 3.60L296.15 11.22L295.76 11.22L298.42 3.60L299.40 3.60L296.42 12.06L295.54 12.06L293.04 4.73L293.29 4.73L290.69 12.06ZM304.64 12.17L304.64 12.17Q303.23 12.17 302.41 11.35Q301.60 10.52 301.60 9.06L301.60 9.06Q301.60 8.11 301.96 7.41Q302.32 6.71 302.96 6.32Q303.61 5.93 304.45 5.93L304.45 5.93Q305.28 5.93 305.84 6.28Q306.41 6.62 306.71 7.27Q307.01 7.91 307.01 8.78L307.01 8.78L307.01 9.14L302.34 9.14L302.34 8.53L306.37 8.53L306.17 8.69Q306.17 7.73 305.74 7.19Q305.30 6.65 304.45 6.65L304.45 6.65Q303.55 6.65 303.05 7.28Q302.54 7.91 302.54 8.98L302.54 8.98L302.54 9.08Q302.54 10.21 303.10 10.79Q303.66 11.38 304.67 11.38L304.67 11.38Q305.21 11.38 305.68 11.21Q306.16 11.05 306.59 10.68L306.59 10.68L306.92 11.36Q306.53 11.75 305.92 11.96Q305.32 12.17 304.64 12.17Z" transform="translate(0, 0)"></path></g></svg></g><g transform="rotate(0 0 0)"><svg viewBoxSize="575" data-root-id="1879495439218" xmlns="http://www.w3.org/2000/svg" y="315.1205062866211" viewBox="3.640000104904175 -0.8400000333786011 287.6299743652344 28.25" x="143.68501373291016" height="28.25" width="287.6299743652344" fontUrl="https://fonts.gstatic.com/s/josefinsans/v32/Qw3PZQNVED7rKGKxtqIqX5E-AVSJrOCfjY46_DjQXMFrLgTsQV0.ttf" zoom="1" editorType="buyer" data-layer-role="brandName" style="position: absolute; top: 315.121px; width: 287.63px; height: 28.25px; left: 143.685px;"><g data-horizontal-grow="center" zoom="1" root="[object Object]" style="fill: rgb(240, 201, 7); fill-opacity: 1;"><path d="M20.30 0.95L23.66 0.95L23.66 26.25L20.30 26.25L20.30 15.16L7.04 15.16L7.04 26.25L3.64 26.25L3.64 0.95L7.04 0.95L7.04 11.94L20.30 11.94L20.30 0.95ZM43.09 26.25L47.60 22.96L56.28 22.96L56.28 26.25L43.09 26.25ZM29.37 13.62L29.37 13.62Q29.37 10.99 30.36 8.66Q31.36 6.34 33.15 4.53Q34.93 2.73 37.26 1.70Q39.59 0.67 42.28 0.67L42.28 0.67Q44.94 0.67 47.27 1.70Q49.60 2.73 51.40 4.53Q53.20 6.34 54.22 8.66Q55.23 10.99 55.23 13.62L55.23 13.62Q55.23 16.31 54.22 18.66Q53.20 21.00 51.42 22.77Q49.63 24.54 47.29 25.53Q44.94 26.53 42.28 26.53L42.28 26.53Q39.59 26.53 37.26 25.55Q34.93 24.57 33.15 22.82Q31.36 21.07 30.36 18.73Q29.37 16.38 29.37 13.62ZM32.87 13.65L32.87 13.65Q32.87 15.65 33.60 17.38Q34.34 19.11 35.63 20.44Q36.93 21.77 38.64 22.51Q40.36 23.24 42.35 23.24L42.35 23.24Q44.31 23.24 46.03 22.51Q47.74 21.77 49.00 20.44Q50.26 19.11 51.00 17.38Q51.73 15.65 51.73 13.62L51.73 13.62Q51.73 11.66 51.00 9.91Q50.26 8.16 48.97 6.84Q47.67 5.53 45.96 4.78Q44.24 4.03 42.28 4.03L42.28 4.03Q40.29 4.03 38.57 4.78Q36.86 5.53 35.56 6.86Q34.27 8.19 33.57 9.94Q32.87 11.69 32.87 13.65ZM80.92 27.41L70.84 1.09L74.76 1.09L81.62 20.41L81.03 20.16L86.03 7.21L87.61 11.80L80.92 27.41ZM93.31 27.37L82.98 1.09L86.38 1.09L93.80 20.13L93.10 19.99L99.65 1.09L103.25 1.09L93.31 27.37ZM110.95 26.60L110.95 26.60Q108.47 26.60 106.68 25.60Q104.89 24.61 103.93 22.87Q102.97 21.14 102.97 18.90L102.97 18.90Q102.97 16.77 104.05 15.02Q105.14 13.27 106.96 12.22Q108.78 11.17 111.02 11.17L111.02 11.17Q113.89 11.17 115.78 12.85Q117.67 14.53 118.33 17.47L118.33 17.47L106.40 21.67L105.63 19.74L115.43 16.17L114.73 16.63Q114.31 15.47 113.33 14.61Q112.35 13.76 110.77 13.76L110.77 13.76Q109.44 13.76 108.39 14.40Q107.34 15.05 106.75 16.17Q106.16 17.29 106.16 18.73L106.16 18.73Q106.16 20.23 106.78 21.37Q107.41 22.51 108.52 23.15Q109.62 23.80 111.02 23.80L111.02 23.80Q111.97 23.80 112.86 23.45Q113.75 23.10 114.52 22.54L114.52 22.54L116.02 24.96Q114.94 25.69 113.59 26.15Q112.25 26.60 110.95 26.60ZM131.25 26.60L131.25 26.60Q129.25 26.60 127.73 25.73Q126.21 24.85 125.30 23.52L125.30 23.52L125.69 22.51L125.69 26.25L122.43 26.25L122.43-0.84L125.65-0.84L125.65 15.09L125.55 13.86Q126.42 12.67 128.05 11.92Q129.68 11.17 131.67 11.17L131.67 11.17Q133.63 11.17 135.24 12.11Q136.85 13.06 137.81 14.75Q138.78 16.45 138.78 18.80L138.78 18.80Q138.78 21.25 137.74 23.00Q136.71 24.75 135.00 25.67Q133.28 26.60 131.25 26.60ZM130.59 23.84L130.59 23.84Q131.99 23.84 133.10 23.17Q134.22 22.51 134.85 21.37Q135.49 20.23 135.49 18.76L135.49 18.76Q135.49 17.36 134.84 16.22Q134.19 15.09 133.09 14.42Q131.99 13.76 130.59 13.76L130.59 13.76Q129.40 13.76 128.38 14.21Q127.36 14.67 126.66 15.45Q125.97 16.24 125.69 17.29L125.69 17.29L125.69 20.20Q125.97 21.25 126.63 22.07Q127.30 22.89 128.31 23.36Q129.32 23.84 130.59 23.84ZM169.44 2.84L168.14 5.46Q166.84 4.80 165.31 4.30Q163.76 3.82 162.29 3.82L162.29 3.82Q160.26 3.82 159.06 4.76Q157.85 5.71 157.85 7.28L157.85 7.28Q157.85 8.47 158.62 9.29Q159.39 10.12 160.65 10.71Q161.91 11.31 163.28 11.83L163.28 11.83Q164.47 12.29 165.62 12.85Q166.78 13.41 167.70 14.25Q168.63 15.09 169.17 16.31Q169.72 17.54 169.72 19.36L169.72 19.36Q169.72 21.35 168.72 23.00Q167.72 24.64 165.87 25.59Q164.01 26.53 161.45 26.53L161.45 26.53Q159.78 26.53 158.25 26.15Q156.73 25.76 155.44 25.15Q154.14 24.54 153.13 23.87L153.13 23.87L154.63 21.21Q155.47 21.81 156.56 22.35Q157.64 22.89 158.83 23.22Q160.02 23.56 161.14 23.56L161.14 23.56Q162.33 23.56 163.50 23.12Q164.68 22.68 165.44 21.77Q166.22 20.86 166.22 19.36L166.22 19.36Q166.22 18.06 165.53 17.20Q164.85 16.35 163.73 15.73Q162.61 15.12 161.35 14.63L161.35 14.63Q160.16 14.18 158.94 13.63Q157.71 13.09 156.66 12.30Q155.61 11.52 154.98 10.36Q154.35 9.21 154.35 7.56L154.35 7.56Q154.35 5.57 155.31 4.08Q156.28 2.59 157.95 1.73Q159.63 0.88 161.81 0.80L161.81 0.80Q164.25 0.80 166.13 1.40Q168 2.00 169.44 2.84L169.44 2.84ZM173.35 18.87L173.35 18.87Q173.35 16.70 174.39 14.95Q175.42 13.20 177.24 12.18Q179.06 11.17 181.37 11.17L181.37 11.17Q183.75 11.17 185.53 12.18Q187.32 13.20 188.30 14.95Q189.28 16.70 189.28 18.87L189.28 18.87Q189.28 21.04 188.30 22.80Q187.32 24.57 185.52 25.59Q183.72 26.60 181.34 26.60L181.34 26.60Q179.03 26.60 177.22 25.64Q175.42 24.68 174.39 22.94Q173.35 21.21 173.35 18.87ZM176.61 18.90L176.61 18.90Q176.61 20.30 177.24 21.44Q177.87 22.58 178.94 23.24Q180.00 23.91 181.30 23.91L181.30 23.91Q182.66 23.91 183.73 23.24Q184.80 22.58 185.40 21.44Q185.99 20.30 185.99 18.90L185.99 18.90Q185.99 17.50 185.40 16.36Q184.80 15.23 183.73 14.54Q182.66 13.86 181.30 13.86L181.30 13.86Q179.97 13.86 178.90 14.56Q177.84 15.26 177.22 16.40Q176.61 17.54 176.61 18.90ZM193.69 26.25L193.69-0.84L196.95-0.84L196.95 26.25L193.69 26.25ZM207.16 26.81L207.16 26.81Q205.21 26.81 203.93 25.60Q202.65 24.40 202.58 22.47L202.58 22.47L202.58 11.76L205.84 11.76L205.84 21.32Q205.91 22.51 206.52 23.24Q207.13 23.98 208.46 24.01L208.46 24.01Q209.69 24.01 210.65 23.29Q211.61 22.58 212.21 21.33Q212.80 20.09 212.80 18.52L212.80 18.52L212.80 11.76L216.06 11.76L216.06 26.25L213.08 26.25L212.80 22.68L212.97 23.31Q212.56 24.33 211.70 25.11Q210.84 25.90 209.69 26.36Q208.53 26.81 207.16 26.81ZM223.09 11.83L223.09 5.39L226.35 5.39L226.35 11.83L230.34 11.83L230.34 14.39L226.35 14.39L226.35 26.25L223.09 26.25L223.09 14.39L220.43 14.39L220.43 11.83L223.09 11.83ZM234.26 26.25L234.26 11.76L237.51 11.76L237.51 26.25L234.26 26.25ZM234.01 6.51L234.01 6.51Q234.01 5.74 234.62 5.21Q235.24 4.69 235.97 4.69L235.97 4.69Q236.71 4.69 237.28 5.21Q237.86 5.74 237.86 6.51L237.86 6.51Q237.86 7.32 237.28 7.82Q236.71 8.33 235.97 8.33L235.97 8.33Q235.24 8.33 234.62 7.81Q234.01 7.28 234.01 6.51ZM241.88 18.87L241.88 18.87Q241.88 16.70 242.92 14.95Q243.95 13.20 245.77 12.18Q247.59 11.17 249.90 11.17L249.90 11.17Q252.28 11.17 254.06 12.18Q255.85 13.20 256.83 14.95Q257.81 16.70 257.81 18.87L257.81 18.87Q257.81 21.04 256.83 22.80Q255.85 24.57 254.05 25.59Q252.25 26.60 249.87 26.60L249.87 26.60Q247.56 26.60 245.75 25.64Q243.95 24.68 242.92 22.94Q241.88 21.21 241.88 18.87ZM245.14 18.90L245.14 18.90Q245.14 20.30 245.77 21.44Q246.40 22.58 247.47 23.24Q248.53 23.91 249.83 23.91L249.83 23.91Q251.19 23.91 252.26 23.24Q253.33 22.58 253.93 21.44Q254.52 20.30 254.52 18.90L254.52 18.90Q254.52 17.50 253.93 16.36Q253.33 15.23 252.26 14.54Q251.19 13.86 249.83 13.86L249.83 13.86Q248.50 13.86 247.43 14.56Q246.37 15.26 245.75 16.40Q245.14 17.54 245.14 18.90ZM262.22 11.76L265.13 11.76L265.40 15.30L265.26 14.74Q265.96 13.13 267.54 12.16Q269.12 11.20 271.18 11.20L271.18 11.20Q273.25 11.20 274.56 12.41Q275.87 13.62 275.90 15.54L275.90 15.54L275.90 26.25L272.62 26.25L272.62 16.70Q272.58 15.51 271.93 14.75Q271.28 14.00 269.92 14.00L269.92 14.00Q268.66 14.00 267.64 14.70Q266.63 15.40 266.05 16.63Q265.47 17.85 265.47 19.46L265.47 19.46L265.47 26.25L262.22 26.25L262.22 11.76ZM285.63 26.53L285.63 26.53Q284.10 26.53 282.64 25.99Q281.19 25.45 280.25 24.36L280.25 24.36L281.61 22.47Q282.52 23.35 283.48 23.78Q284.44 24.22 285.39 24.22L285.39 24.22Q286.09 24.22 286.69 24.05Q287.28 23.87 287.65 23.47Q288.01 23.07 288.01 22.37L288.01 22.37Q288.01 21.60 287.51 21.14Q287 20.69 286.21 20.41Q285.43 20.13 284.55 19.88L284.55 19.88Q282.76 19.29 281.82 18.24Q280.88 17.19 280.88 15.68L280.88 15.68Q280.88 14.53 281.45 13.53Q282.03 12.53 283.17 11.90Q284.31 11.27 285.99 11.27L285.99 11.27Q287.49 11.27 288.68 11.64Q289.87 12.01 290.92 12.85L290.92 12.85L289.63 14.88Q289.00 14.21 288.12 13.90Q287.25 13.58 286.55 13.55L286.55 13.55Q285.95 13.51 285.41 13.72Q284.87 13.93 284.51 14.32Q284.17 14.70 284.17 15.23L284.17 15.23Q284.17 15.96 284.66 16.42Q285.14 16.87 285.93 17.13Q286.72 17.40 287.49 17.68L287.49 17.68Q288.57 17.99 289.42 18.52Q290.25 19.04 290.76 19.81Q291.27 20.58 291.27 21.74L291.27 21.74Q291.27 23.03 290.66 24.13Q290.05 25.24 288.80 25.88Q287.56 26.53 285.63 26.53Z" transform="translate(0, 0)"></path></g></svg></g></svg>